<svg width="1200" height="800" xmlns="http://www.w3.org/2000/svg">
  <defs>
    <linearGradient id="bg-defi-aggregator" x1="0%" y1="0%" x2="100%" y2="100%">
      <stop offset="0%" style="stop-color:#06b6d4;stop-opacity:1" />
      <stop offset="100%" style="stop-color:#06b6d4;stop-opacity:0.8" />
    </linearGradient>
    <filter id="shadow">
      <feDropShadow dx="0" dy="4" stdDeviation="8" flood-opacity="0.2"/>
    </filter>
  </defs>
  
  <!-- Background -->
  <rect width="1200" height="800" fill="url(#bg-defi-aggregator)"/>
  
  <!-- Grid pattern -->
  <defs>
    <pattern id="grid" width="40" height="40" patternUnits="userSpaceOnUse">
      <path d="M 40 0 L 0 0 0 40" fill="none" stroke="#ffffff" stroke-width="0.5" opacity="0.1"/>
    </pattern>
  </defs>
  <rect width="1200" height="800" fill="url(#grid)"/>
  
  <!-- Main content area -->
  <rect x="60" y="60" width="1080" height="680" rx="12" fill="#ffffff" opacity="0.08" filter="url(#shadow)"/>
  
  <!-- Header bar -->
  <rect x="80" y="80" width="1040" height="60" rx="8" fill="#ffffff" opacity="0.12"/>
  
  <!-- Navigation dots -->
  <circle cx="110" cy="110" r="6" fill="#ffffff" opacity="0.3"/>
  <circle cx="130" cy="110" r="6" fill="#ffffff" opacity="0.3"/>
  <circle cx="150" cy="110" r="6" fill="#ffffff" opacity="0.3"/>
  
  <!-- Content blocks -->
  <rect x="80" y="160" width="480" height="200" rx="8" fill="#ffffff" opacity="0.12"/>
  <rect x="580" y="160" width="280" height="96" rx="8" fill="#ffffff" opacity="0.12"/>
  <rect x="580" y="264" width="280" height="96" rx="8" fill="#ffffff" opacity="0.12"/>
  <rect x="880" y="160" width="240" height="200" rx="8" fill="#ffffff" opacity="0.12"/>
  
  <!-- Chart area -->
  <rect x="80" y="380" width="1040" height="260" rx="8" fill="#ffffff" opacity="0.06"/>
  
  <!-- Chart bars -->
  <rect x="120" y="560" width="40" height="60" rx="4" fill="#ffffff" opacity="0.2"/>
  <rect x="180" y="520" width="40" height="100" rx="4" fill="#ffffff" opacity="0.25"/>
  <rect x="240" y="480" width="40" height="140" rx="4" fill="#ffffff" opacity="0.3"/>
  <rect x="300" y="440" width="40" height="180" rx="4" fill="#ffffff" opacity="0.35"/>
  <rect x="360" y="500" width="40" height="120" rx="4" fill="#ffffff" opacity="0.25"/>
  
  <!-- Title -->
  <text x="600" y="450" text-anchor="middle" font-family="system-ui, -apple-system, sans-serif" font-size="48" font-weight="bold" fill="#ffffff">
    DeFi Yield Aggregator
  </text>
  
  <!-- Subtitle -->
  <text x="600" y="490" text-anchor="middle" font-family="system-ui, -apple-system, sans-serif" font-size="24" font-weight="500" fill="#ffffff" opacity="0.8">
    Automated Yield Farming
  </text>
  
  <!-- Description -->
  <text x="600" y="530" text-anchor="middle" font-family="system-ui, -apple-system, sans-serif" font-size="18" fill="#ffffff" opacity="0.7">
    Multi-protocol • Auto-compounding
  </text>
  
  <!-- Decorative elements -->
  <circle cx="1050" cy="150" r="30" fill="#ffffff" opacity="0.1"/>
  <circle cx="150" cy="650" r="20" fill="#ffffff" opacity="0.15"/>
  <rect x="900" y="500" width="60" height="4" rx="2" fill="#ffffff" opacity="0.3"/>
  <rect x="900" y="520" width="80" height="4" rx="2" fill="#ffffff" opacity="0.25"/>
  <rect x="900" y="540" width="100" height="4" rx="2" fill="#ffffff" opacity="0.2"/>
</svg>